<svg width="103" height="103" viewBox="0 0 103 103" fill="none" xmlns="http://www.w3.org/2000/svg">
<circle cx="51.5" cy="51.5" r="51.5" fill="#254D4D"/>
<path d="M57.486 19.0257H32.2972C30.6271 19.0257 29.0254 19.5982 27.8444 20.6172C26.6635 21.6362 26 23.0182 26 24.4593V67.9282C26 69.3692 26.6635 70.7513 27.8444 71.7703C29.0254 72.7893 30.6271 73.3618 32.2972 73.3618H70.0804C71.7505 73.3618 73.3522 72.7893 74.5332 71.7703C75.7141 70.7513 76.3776 69.3692 76.3776 67.9282V35.3265L57.486 19.0257Z" stroke="white" stroke-width="2" stroke-linecap="round" stroke-linejoin="round"/>
<path d="M57.4861 19.0257V35.3265H76.3777" stroke="white" stroke-width="2" stroke-linecap="round" stroke-linejoin="round"/>
<path d="M63.7832 48.9106H38.5944" stroke="white" stroke-width="2" stroke-linecap="round" stroke-linejoin="round"/>
<path d="M63.7832 59.7778H38.5944" stroke="white" stroke-width="2" stroke-linecap="round" stroke-linejoin="round"/>
<path d="M44.8916 38.0434H41.743H38.5944" stroke="white" stroke-width="2" stroke-linecap="round" stroke-linejoin="round"/>
</svg>
