<svg width="25" height="23" viewBox="0 0 25 23" fill="none" xmlns="http://www.w3.org/2000/svg">
<path d="M24.6582 19.1733L19.79 15.01C19.5703 14.8221 19.2725 14.7177 18.96 14.7177H18.1641C19.5117 13.2436 20.3125 11.3895 20.3125 9.3726C20.3125 4.57455 15.7666 0.686829 10.1562 0.686829C4.5459 0.686829 0 4.57455 0 9.3726C0 14.1707 4.5459 18.0584 10.1562 18.0584C12.5146 18.0584 14.6826 17.3735 16.4062 16.221V16.9017C16.4062 17.1689 16.5283 17.4236 16.748 17.6116L21.6162 21.7749C22.0752 22.1674 22.8174 22.1674 23.2715 21.7749L24.6533 20.5931C25.1123 20.2006 25.1123 19.5659 24.6582 19.1733ZM10.1562 14.7177C6.7041 14.7177 3.90625 12.3291 3.90625 9.3726C3.90625 6.42027 6.69922 4.02751 10.1562 4.02751C13.6084 4.02751 16.4062 6.4161 16.4062 9.3726C16.4062 12.3249 13.6133 14.7177 10.1562 14.7177Z" fill="#2F2E2E"/>
</svg>
