<svg width="53" height="57" viewBox="0 0 53 57" fill="none" xmlns="http://www.w3.org/2000/svg">
<path d="M32.486 1.02573H7.2972C5.62708 1.02573 4.02536 1.59819 2.84441 2.61719C1.66345 3.63619 1 5.01825 1 6.45933V49.9282C1 51.3692 1.66345 52.7513 2.84441 53.7703C4.02536 54.7893 5.62708 55.3618 7.2972 55.3618H45.0804C46.7505 55.3618 48.3522 54.7893 49.5332 53.7703C50.7141 52.7513 51.3776 51.3692 51.3776 49.9282V17.3265L32.486 1.02573Z" stroke="white" stroke-width="2" stroke-linecap="round" stroke-linejoin="round"/>
<path d="M32.4861 1.02573V17.3265H51.3777" stroke="white" stroke-width="2" stroke-linecap="round" stroke-linejoin="round"/>
<path d="M38.7832 30.9106H13.5944" stroke="white" stroke-width="2" stroke-linecap="round" stroke-linejoin="round"/>
<path d="M38.7832 41.7778H13.5944" stroke="white" stroke-width="2" stroke-linecap="round" stroke-linejoin="round"/>
<path d="M19.8916 20.0434H16.743H13.5944" stroke="white" stroke-width="2" stroke-linecap="round" stroke-linejoin="round"/>
</svg>
